<?xml version="1.0" encoding="UTF-8" standalone="no"?>
<!DOCTYPE svg PUBLIC "-//W3C//DTD SVG 1.1//EN"
 "http://www.w3.org/Graphics/SVG/1.1/DTD/svg11.dtd">
<!-- Generated by graphviz version 14.1.5 (20260411.2331)
 -->
<!-- Title: ERD Pages: 1 -->
<svg width="1833pt" height="1134pt"
 viewBox="0.00 0.00 1833.00 1134.00" xmlns="http://www.w3.org/2000/svg" xmlns:xlink="http://www.w3.org/1999/xlink">
<g id="graph0" class="graph" transform="scale(1 1) rotate(0) translate(43.2 1091.01)">
<title>ERD</title>
<polygon fill="white" stroke="none" points="-43.2,43.2 -43.2,-1091.01 1789.55,-1091.01 1789.55,43.2 -43.2,43.2"/>
<!-- Area -->
<g id="node1" class="node">
<title>Area</title>
<polygon fill="#2c4a2e" stroke="#2c4a2e" points="729.93,-616.88 636.33,-616.88 636.33,-577.28 729.93,-577.28 729.93,-616.88"/>
<text xml:space="preserve" text-anchor="middle" x="683.13" y="-591.48" font-family="Helvetica,sans-Serif" font-size="13.00" fill="white">Area</text>
</g>
<!-- R_Customer_Area -->
<g id="node12" class="node">
<title>R_Customer_Area</title>
<polygon fill="#d9bf8a" stroke="#2c4a2e" points="849.36,-691.31 805.93,-666.11 849.36,-640.91 892.78,-666.11 849.36,-691.31"/>
<text xml:space="preserve" text-anchor="middle" x="849.36" y="-662.24" font-family="Helvetica,sans-Serif" font-size="10.00">LocatedIn</text>
</g>
<!-- Area&#45;&#45;R_Customer_Area -->
<g id="edge49" class="edge">
<title>Area&#45;&#45;R_Customer_Area</title>
<path fill="none" stroke="#4a4a4a" d="M730.32,-616.67C760.65,-629.27 798.88,-645.15 823.71,-655.46"/>
</g>
<!-- R_DeliveryBoy_Area -->
<g id="node13" class="node">
<title>R_DeliveryBoy_Area</title>
<polygon fill="#d9bf8a" stroke="#2c4a2e" points="513.12,-553.28 473.52,-528.08 513.12,-502.88 552.72,-528.08 513.12,-553.28"/>
<text xml:space="preserve" text-anchor="middle" x="513.12" y="-524.2" font-family="Helvetica,sans-Serif" font-size="10.00">Serves</text>
</g>
<!-- Area&#45;&#45;R_DeliveryBoy_Area -->
<g id="edge51" class="edge">
<title>Area&#45;&#45;R_DeliveryBoy_Area</title>
<path fill="none" stroke="#4a4a4a" d="M636.22,-578.04C608.36,-566.73 573.61,-552.63 548.14,-542.29"/>
<polygon fill="#4a4a4a" stroke="#4a4a4a" points="538.97,-538.57 549.93,-538.16 542.48,-539.99 548.24,-542.33 548.24,-542.33 548.24,-542.33 542.48,-539.99 546.55,-546.5 538.97,-538.57"/>
</g>
<!-- Area_AreaCode -->
<g id="node22" class="node">
<title>Area_AreaCode</title>
<ellipse fill="white" stroke="#2c4a2e" cx="874.61" cy="-572.8" rx="31.76" ry="14.4"/>
<text xml:space="preserve" text-anchor="start" x="853.61" y="-570.13" font-family="Helvetica,sans-Serif" text-decoration="underline" font-size="9.00">AreaCode</text>
</g>
<!-- Area&#45;&#45;Area_AreaCode -->
<g id="edge1" class="edge">
<title>Area&#45;&#45;Area_AreaCode</title>
<path fill="none" stroke="#4a4a4a" d="M729.97,-591.14C765.29,-586.66 812.75,-580.64 843.51,-576.75"/>
</g>
<!-- Area_AreaName -->
<g id="node23" class="node">
<title>Area_AreaName</title>
<ellipse fill="white" stroke="#2c4a2e" cx="511.01" cy="-640.81" rx="33.09" ry="14.4"/>
<text xml:space="preserve" text-anchor="middle" x="511.01" y="-637.14" font-family="Helvetica,sans-Serif" font-size="9.00">AreaName</text>
</g>
<!-- Area&#45;&#45;Area_AreaName -->
<g id="edge2" class="edge">
<title>Area&#45;&#45;Area_AreaName</title>
<path fill="none" stroke="#4a4a4a" d="M636.09,-609.03C605.44,-616.82 566.4,-626.74 540.16,-633.41"/>
</g>
<!-- Area_City -->
<g id="node24" class="node">
<title>Area_City</title>
<ellipse fill="white" stroke="#2c4a2e" cx="665.59" cy="-666.7" rx="25.2" ry="14.4"/>
<text xml:space="preserve" text-anchor="middle" x="665.59" y="-663.03" font-family="Helvetica,sans-Serif" font-size="9.00">City</text>
</g>
<!-- Area&#45;&#45;Area_City -->
<g id="edge3" class="edge">
<title>Area&#45;&#45;Area_City</title>
<path fill="none" stroke="#4a4a4a" d="M678.05,-617.22C675.22,-628.46 671.76,-642.21 669.2,-652.36"/>
</g>
<!-- Customer -->
<g id="node2" class="node">
<title>Customer</title>
<polygon fill="#2c4a2e" stroke="#2c4a2e" points="1135.46,-774.74 1041.86,-774.74 1041.86,-735.14 1135.46,-735.14 1135.46,-774.74"/>
<text xml:space="preserve" text-anchor="middle" x="1088.66" y="-749.34" font-family="Helvetica,sans-Serif" font-size="13.00" fill="white">Customer</text>
</g>
<!-- Customer&#45;&#45;R_Customer_Area -->
<g id="edge48" class="edge">
<title>Customer&#45;&#45;R_Customer_Area</title>
<path fill="none" stroke="#4a4a4a" stroke-width="2.5" d="M1041.38,-737.39C996.69,-720.8 930.44,-696.21 888.6,-680.68"/>
<polygon fill="#4a4a4a" stroke="#4a4a4a" stroke-width="2.5" points="879.3,-677.23 890.24,-676.49 881.4,-677.2 888.94,-680 888.68,-680.71 888.42,-681.41 880.87,-678.61 887.11,-684.92 879.3,-677.23"/>
</g>
<!-- R_Customer_Orders -->
<g id="node14" class="node">
<title>R_Customer_Orders</title>
<polygon fill="#d9bf8a" stroke="#2c4a2e" points="1074.13,-622.43 1034.53,-597.23 1074.13,-572.03 1113.73,-597.23 1074.13,-622.43"/>
<text xml:space="preserve" text-anchor="middle" x="1074.13" y="-593.36" font-family="Helvetica,sans-Serif" font-size="10.00">Places</text>
</g>
<!-- Customer&#45;&#45;R_Customer_Orders -->
<g id="edge52" class="edge">
<title>Customer&#45;&#45;R_Customer_Orders</title>
<path fill="none" stroke="#4a4a4a" d="M1086.79,-734.64C1084.12,-705.69 1079.24,-652.61 1076.38,-621.58"/>
</g>
<!-- R_Reservation_Customer -->
<g id="node19" class="node">
<title>R_Reservation_Customer</title>
<polygon fill="#d9bf8a" stroke="#2c4a2e" points="822.85,-818.57 783.25,-793.37 822.85,-768.17 862.45,-793.37 822.85,-818.57"/>
<text xml:space="preserve" text-anchor="middle" x="822.85" y="-789.5" font-family="Helvetica,sans-Serif" font-size="10.00">MadeBy</text>
</g>
<!-- Customer&#45;&#45;R_Reservation_Customer -->
<g id="edge65" class="edge">
<title>Customer&#45;&#45;R_Reservation_Customer</title>
<path fill="none" stroke="#4a4a4a" d="M1041.44,-761.76C988.04,-769.49 902.45,-781.86 855.79,-788.61"/>
</g>
<!-- Cust_ID -->
<g id="node25" class="node">
<title>Cust_ID</title>
<ellipse fill="white" stroke="#2c4a2e" cx="1020.21" cy="-673.1" rx="35.76" ry="14.4"/>
<text xml:space="preserve" text-anchor="start" x="995.84" y="-670.43" font-family="Helvetica,sans-Serif" text-decoration="underline" font-size="9.00">CustomerID</text>
</g>
<!-- Customer&#45;&#45;Cust_ID -->
<g id="edge4" class="edge">
<title>Customer&#45;&#45;Cust_ID</title>
<path fill="none" stroke="#4a4a4a" d="M1071.74,-734.71C1059.31,-719.84 1042.74,-700.04 1031.79,-686.95"/>
</g>
<!-- Cust_First -->
<g id="node26" class="node">
<title>Cust_First</title>
<ellipse fill="white" stroke="#2c4a2e" cx="1309.36" cy="-772.23" rx="31.76" ry="14.4"/>
<text xml:space="preserve" text-anchor="middle" x="1309.36" y="-768.55" font-family="Helvetica,sans-Serif" font-size="9.00">FirstName</text>
</g>
<!-- Customer&#45;&#45;Cust_First -->
<g id="edge5" class="edge">
<title>Customer&#45;&#45;Cust_First</title>
<path fill="none" stroke="#4a4a4a" d="M1135.74,-758.62C1178.53,-761.98 1240.49,-766.83 1277.66,-769.74"/>
</g>
<!-- Cust_Last -->
<g id="node27" class="node">
<title>Cust_Last</title>
<ellipse fill="white" stroke="#2c4a2e" cx="1178.56" cy="-845.67" rx="31.76" ry="14.4"/>
<text xml:space="preserve" text-anchor="middle" x="1178.56" y="-841.99" font-family="Helvetica,sans-Serif" font-size="9.00">LastName</text>
</g>
<!-- Customer&#45;&#45;Cust_Last -->
<g id="edge6" class="edge">
<title>Customer&#45;&#45;Cust_Last</title>
<path fill="none" stroke="#4a4a4a" d="M1108.61,-775.07C1125.89,-792.51 1150.39,-817.24 1165.34,-832.33"/>
</g>
<!-- Cust_Phone -->
<g id="node28" class="node">
<title>Cust_Phone</title>
<ellipse fill="white" stroke="#2c4a2e" cx="987.93" cy="-839.18" rx="25.2" ry="14.4"/>
<text xml:space="preserve" text-anchor="middle" x="987.93" y="-835.51" font-family="Helvetica,sans-Serif" font-size="9.00">Phone</text>
</g>
<!-- Customer&#45;&#45;Cust_Phone -->
<g id="edge7" class="edge">
<title>Customer&#45;&#45;Cust_Phone</title>
<path fill="none" stroke="#4a4a4a" d="M1064.53,-775.11C1045.21,-791.28 1018.74,-813.42 1002.51,-826.99"/>
</g>
<!-- Cust_Email -->
<g id="node29" class="node">
<title>Cust_Email</title>
<ellipse fill="white" stroke="#2c4a2e" cx="1342.94" cy="-647.56" rx="25.2" ry="14.4"/>
<text xml:space="preserve" text-anchor="middle" x="1342.94" y="-643.89" font-family="Helvetica,sans-Serif" font-size="9.00">Email</text>
</g>
<!-- Customer&#45;&#45;Cust_Email -->
<g id="edge8" class="edge">
<title>Customer&#45;&#45;Cust_Email</title>
<path fill="none" stroke="#4a4a4a" d="M1135.89,-742.98C1165.9,-734.69 1205.24,-722.52 1238.58,-707.86 1270.95,-693.63 1306.07,-671.91 1326.19,-658.79"/>
</g>
<!-- Cust_Street -->
<g id="node30" class="node">
<title>Cust_Street</title>
<ellipse fill="white" stroke="#2c4a2e" cx="931.07" cy="-729.73" rx="25.2" ry="14.4"/>
<text xml:space="preserve" text-anchor="middle" x="931.07" y="-726.06" font-family="Helvetica,sans-Serif" font-size="9.00">Street</text>
</g>
<!-- Customer&#45;&#45;Cust_Street -->
<g id="edge9" class="edge">
<title>Customer&#45;&#45;Cust_Street</title>
<path fill="none" stroke="#4a4a4a" d="M1041.38,-747.37C1013.09,-742.85 978.32,-737.29 955.47,-733.63"/>
</g>
<!-- Cust_Join -->
<g id="node31" class="node">
<title>Cust_Join</title>
<ellipse fill="white" stroke="#2c4a2e" cx="1215.05" cy="-695.23" rx="28.64" ry="14.4"/>
<text xml:space="preserve" text-anchor="middle" x="1215.05" y="-691.56" font-family="Helvetica,sans-Serif" font-size="9.00">JoinDate</text>
</g>
<!-- Customer&#45;&#45;Cust_Join -->
<g id="edge10" class="edge">
<title>Customer&#45;&#45;Cust_Join</title>
<path fill="none" stroke="#4a4a4a" d="M1131.45,-734.72C1152.5,-724.78 1176.94,-713.23 1193.94,-705.21"/>
</g>
<!-- Cust_Premium -->
<g id="node32" class="node">
<title>Cust_Premium</title>
<ellipse fill="white" stroke="#2c4a2e" cx="851.26" cy="-875.46" rx="32.65" ry="14.4"/>
<text xml:space="preserve" text-anchor="middle" x="851.26" y="-871.78" font-family="Helvetica,sans-Serif" font-size="9.00">IsPremium</text>
</g>
<!-- Customer&#45;&#45;Cust_Premium -->
<g id="edge11" class="edge">
<title>Customer&#45;&#45;Cust_Premium</title>
<path fill="none" stroke="#4a4a4a" d="M1048.92,-775.11C998.37,-800.77 912.84,-844.19 872.96,-864.44"/>
</g>
<!-- MenuItem -->
<g id="node3" class="node">
<title>MenuItem</title>
<polygon fill="#2c4a2e" stroke="#2c4a2e" points="909.95,-139.35 816.35,-139.35 816.35,-99.75 909.95,-99.75 909.95,-139.35"/>
<text xml:space="preserve" text-anchor="middle" x="863.15" y="-113.95" font-family="Helvetica,sans-Serif" font-size="13.00" fill="white">MenuItem</text>
</g>
<!-- OrderItem -->
<g id="node11" class="node">
<title>OrderItem</title>
<polygon fill="#2c4a2e" stroke="#2c4a2e" points="1111.4,-196.29 1017.8,-196.29 1017.8,-156.69 1111.4,-156.69 1111.4,-196.29"/>
<polygon fill="none" stroke="#2c4a2e" points="1115.4,-200.29 1013.8,-200.29 1013.8,-152.69 1115.4,-152.69 1115.4,-200.29"/>
<text xml:space="preserve" text-anchor="middle" x="1064.6" y="-170.89" font-family="Helvetica,sans-Serif" font-size="13.00" fill="white">OrderItem</text>
</g>
<!-- MenuItem&#45;&#45;OrderItem -->
<!-- R_OrderItem_MenuItem -->
<g id="node15" class="node">
<title>R_OrderItem_MenuItem</title>
<polygon fill="#d9bf8a" stroke="#2c4a2e" points="924.21,-274.73 875.09,-249.53 924.21,-224.33 973.34,-249.53 924.21,-274.73"/>
<text xml:space="preserve" text-anchor="middle" x="924.21" y="-245.65" font-family="Helvetica,sans-Serif" font-size="10.00">References</text>
</g>
<!-- MenuItem&#45;&#45;R_OrderItem_MenuItem -->
<g id="edge57" class="edge">
<title>MenuItem&#45;&#45;R_OrderItem_MenuItem</title>
<path fill="none" stroke="#4a4a4a" d="M872.56,-139.57C883.93,-163.78 902.98,-204.33 914.49,-228.84"/>
</g>
<!-- Menu_ID -->
<g id="node33" class="node">
<title>Menu_ID</title>
<ellipse fill="white" stroke="#2c4a2e" cx="878.03" cy="-32.72" rx="25.2" ry="14.4"/>
<text xml:space="preserve" text-anchor="start" x="864.91" y="-30.05" font-family="Helvetica,sans-Serif" text-decoration="underline" font-size="9.00">ItemID</text>
</g>
<!-- MenuItem&#45;&#45;Menu_ID -->
<g id="edge12" class="edge">
<title>MenuItem&#45;&#45;Menu_ID</title>
<path fill="none" stroke="#4a4a4a" d="M866.6,-99.41C869.33,-83.48 873.08,-61.61 875.53,-47.33"/>
</g>
<!-- Menu_Name -->
<g id="node34" class="node">
<title>Menu_Name</title>
<ellipse fill="white" stroke="#2c4a2e" cx="743.62" cy="-14.4" rx="31.76" ry="14.4"/>
<text xml:space="preserve" text-anchor="middle" x="743.62" y="-10.72" font-family="Helvetica,sans-Serif" font-size="9.00">ItemName</text>
</g>
<!-- MenuItem&#45;&#45;Menu_Name -->
<g id="edge13" class="edge">
<title>MenuItem&#45;&#45;Menu_Name</title>
<path fill="none" stroke="#4a4a4a" d="M840.1,-99.27C815.95,-78.03 778.74,-45.29 758.3,-27.32"/>
</g>
<!-- Menu_Cat -->
<g id="node35" class="node">
<title>Menu_Cat</title>
<ellipse fill="white" stroke="#2c4a2e" cx="756.41" cy="-284.92" rx="29.09" ry="14.4"/>
<text xml:space="preserve" text-anchor="middle" x="756.41" y="-281.24" font-family="Helvetica,sans-Serif" font-size="9.00">Category</text>
</g>
<!-- MenuItem&#45;&#45;Menu_Cat -->
<g id="edge14" class="edge">
<title>MenuItem&#45;&#45;Menu_Cat</title>
<path fill="none" stroke="#4a4a4a" d="M850.06,-139.82C828.13,-173.8 784.5,-241.41 765.55,-270.76"/>
</g>
<!-- Menu_Desc -->
<g id="node36" class="node">
<title>Menu_Desc</title>
<ellipse fill="white" stroke="#2c4a2e" cx="1015.6" cy="-61.31" rx="34.43" ry="14.4"/>
<text xml:space="preserve" text-anchor="middle" x="1015.6" y="-57.63" font-family="Helvetica,sans-Serif" font-size="9.00">Description</text>
</g>
<!-- MenuItem&#45;&#45;Menu_Desc -->
<g id="edge15" class="edge">
<title>MenuItem&#45;&#45;Menu_Desc</title>
<path fill="none" stroke="#4a4a4a" d="M910.14,-101.6C936.38,-91.57 968.08,-79.46 989.83,-71.15"/>
</g>
<!-- Menu_Price -->
<g id="node37" class="node">
<title>Menu_Price</title>
<ellipse fill="white" stroke="#2c4a2e" cx="643.06" cy="-182.47" rx="25.2" ry="14.4"/>
<text xml:space="preserve" text-anchor="middle" x="643.06" y="-178.8" font-family="Helvetica,sans-Serif" font-size="9.00">Price</text>
</g>
<!-- MenuItem&#45;&#45;Menu_Price -->
<g id="edge16" class="edge">
<title>MenuItem&#45;&#45;Menu_Price</title>
<path fill="none" stroke="#4a4a4a" d="M815.94,-133.04C769.71,-146.26 701.23,-165.84 665.94,-175.93"/>
</g>
<!-- Menu_Avail -->
<g id="node38" class="node">
<title>Menu_Avail</title>
<ellipse fill="white" stroke="#2c4a2e" cx="650.64" cy="-95.98" rx="33.54" ry="14.4"/>
<text xml:space="preserve" text-anchor="middle" x="650.64" y="-92.31" font-family="Helvetica,sans-Serif" font-size="9.00">IsAvailable</text>
</g>
<!-- MenuItem&#45;&#45;Menu_Avail -->
<g id="edge17" class="edge">
<title>MenuItem&#45;&#45;Menu_Avail</title>
<path fill="none" stroke="#4a4a4a" d="M815.99,-114.32C775.76,-109.85 718.96,-103.56 683.5,-99.62"/>
</g>
<!-- DineInTable -->
<g id="node4" class="node">
<title>DineInTable</title>
<polygon fill="#2c4a2e" stroke="#2c4a2e" points="183.31,-934.85 83.26,-934.85 83.26,-895.25 183.31,-895.25 183.31,-934.85"/>
<text xml:space="preserve" text-anchor="middle" x="133.28" y="-909.45" font-family="Helvetica,sans-Serif" font-size="13.00" fill="white">DineInTable</text>
</g>
<!-- R_Reservation_Table -->
<g id="node20" class="node">
<title>R_Reservation_Table</title>
<polygon fill="#d9bf8a" stroke="#2c4a2e" points="322.45,-869.78 279.59,-844.58 322.45,-819.38 365.31,-844.58 322.45,-869.78"/>
<text xml:space="preserve" text-anchor="middle" x="322.45" y="-840.71" font-family="Helvetica,sans-Serif" font-size="10.00">Reserves</text>
</g>
<!-- DineInTable&#45;&#45;R_Reservation_Table -->
<g id="edge67" class="edge">
<title>DineInTable&#45;&#45;R_Reservation_Table</title>
<path fill="none" stroke="#4a4a4a" d="M183.48,-896.35C219.49,-882.94 266.6,-865.39 295.68,-854.55"/>
</g>
<!-- Table_ID -->
<g id="node39" class="node">
<title>Table_ID</title>
<ellipse fill="white" stroke="#2c4a2e" cx="41.91" cy="-973.57" rx="25.53" ry="14.4"/>
<text xml:space="preserve" text-anchor="start" x="26.16" y="-970.9" font-family="Helvetica,sans-Serif" text-decoration="underline" font-size="9.00">TableID</text>
</g>
<!-- DineInTable&#45;&#45;Table_ID -->
<g id="edge18" class="edge">
<title>DineInTable&#45;&#45;Table_ID</title>
<path fill="none" stroke="#4a4a4a" d="M101.84,-935.19C87.48,-944.38 71.05,-954.91 59.02,-962.61"/>
</g>
<!-- Table_Cap -->
<g id="node40" class="node">
<title>Table_Cap</title>
<ellipse fill="white" stroke="#2c4a2e" cx="93.23" cy="-855.17" rx="28.2" ry="14.4"/>
<text xml:space="preserve" text-anchor="middle" x="93.23" y="-851.5" font-family="Helvetica,sans-Serif" font-size="9.00">Capacity</text>
</g>
<!-- DineInTable&#45;&#45;Table_Cap -->
<g id="edge19" class="edge">
<title>DineInTable&#45;&#45;Table_Cap</title>
<path fill="none" stroke="#4a4a4a" d="M119.72,-894.78C114.1,-886.36 107.71,-876.81 102.61,-869.19"/>
</g>
<!-- Table_Loc -->
<g id="node41" class="node">
<title>Table_Loc</title>
<ellipse fill="white" stroke="#2c4a2e" cx="224.27" cy="-1015.38" rx="27.75" ry="14.4"/>
<text xml:space="preserve" text-anchor="middle" x="224.27" y="-1011.7" font-family="Helvetica,sans-Serif" font-size="9.00">Location</text>
</g>
<!-- DineInTable&#45;&#45;Table_Loc -->
<g id="edge20" class="edge">
<title>DineInTable&#45;&#45;Table_Loc</title>
<path fill="none" stroke="#4a4a4a" d="M151.26,-934.87C169.28,-954.75 196.53,-984.8 212.14,-1002.01"/>
</g>
<!-- DeliveryBoy -->
<g id="node5" class="node">
<title>DeliveryBoy</title>
<polygon fill="#2c4a2e" stroke="#2c4a2e" points="339.4,-444.36 238.6,-444.36 238.6,-404.76 339.4,-404.76 339.4,-444.36"/>
<text xml:space="preserve" text-anchor="middle" x="289" y="-418.96" font-family="Helvetica,sans-Serif" font-size="13.00" fill="white">DeliveryBoy</text>
</g>
<!-- DeliveryBoy&#45;&#45;R_DeliveryBoy_Area -->
<g id="edge50" class="edge">
<title>DeliveryBoy&#45;&#45;R_DeliveryBoy_Area</title>
<path fill="none" stroke="#4a4a4a" d="M332.75,-444.76C379.75,-466.47 452.69,-500.16 489.77,-517.29"/>
</g>
<!-- R_Delivery_DeliveryBoy -->
<g id="node17" class="node">
<title>R_Delivery_DeliveryBoy</title>
<polygon fill="#d9bf8a" stroke="#2c4a2e" points="493.23,-439.98 443.53,-414.78 493.23,-389.58 542.92,-414.78 493.23,-439.98"/>
<text xml:space="preserve" text-anchor="middle" x="493.23" y="-410.91" font-family="Helvetica,sans-Serif" font-size="10.00">AssignedTo</text>
</g>
<!-- DeliveryBoy&#45;&#45;R_Delivery_DeliveryBoy -->
<g id="edge61" class="edge">
<title>DeliveryBoy&#45;&#45;R_Delivery_DeliveryBoy</title>
<path fill="none" stroke="#4a4a4a" stroke-width="2.5" d="M339.75,-422.13C368.35,-420.76 404.23,-419.04 434.11,-417.61"/>
<polygon fill="#4a4a4a" stroke="#4a4a4a" stroke-width="2.5" points="443.89,-417.14 434.12,-422.12 441.97,-417.99 433.94,-418.37 433.9,-417.62 433.87,-416.87 441.9,-416.49 433.69,-413.13 443.89,-417.14"/>
</g>
<!-- DB_ID -->
<g id="node42" class="node">
<title>DB_ID</title>
<ellipse fill="white" stroke="#2c4a2e" cx="280.85" cy="-360.43" rx="41.55" ry="14.4"/>
<text xml:space="preserve" text-anchor="start" x="251.6" y="-357.76" font-family="Helvetica,sans-Serif" text-decoration="underline" font-size="9.00">DeliveryBoyID</text>
</g>
<!-- DeliveryBoy&#45;&#45;DB_ID -->
<g id="edge21" class="edge">
<title>DeliveryBoy&#45;&#45;DB_ID</title>
<path fill="none" stroke="#4a4a4a" d="M286.42,-404.27C285.23,-394.87 283.84,-383.92 282.74,-375.31"/>
</g>
<!-- DB_Name -->
<g id="node43" class="node">
<title>DB_Name</title>
<ellipse fill="white" stroke="#2c4a2e" cx="186.3" cy="-534.14" rx="25.2" ry="14.4"/>
<text xml:space="preserve" text-anchor="middle" x="186.3" y="-530.47" font-family="Helvetica,sans-Serif" font-size="9.00">Name</text>
</g>
<!-- DeliveryBoy&#45;&#45;DB_Name -->
<g id="edge22" class="edge">
<title>DeliveryBoy&#45;&#45;DB_Name</title>
<path fill="none" stroke="#4a4a4a" d="M270.16,-444.66C249.2,-467.02 215.96,-502.5 198.28,-521.36"/>
</g>
<!-- DB_Phone -->
<g id="node44" class="node">
<title>DB_Phone</title>
<ellipse fill="white" stroke="#2c4a2e" cx="125.37" cy="-414.18" rx="25.2" ry="14.4"/>
<text xml:space="preserve" text-anchor="middle" x="125.37" y="-410.51" font-family="Helvetica,sans-Serif" font-size="9.00">Phone</text>
</g>
<!-- DeliveryBoy&#45;&#45;DB_Phone -->
<g id="edge23" class="edge">
<title>DeliveryBoy&#45;&#45;DB_Phone</title>
<path fill="none" stroke="#4a4a4a" d="M238.12,-421.33C209.04,-419.49 173.84,-417.25 150.59,-415.78"/>
</g>
<!-- Orders -->
<g id="node6" class="node">
<title>Orders</title>
<polygon fill="#2c4a2e" stroke="#2c4a2e" points="1176.53,-481.41 1082.93,-481.41 1082.93,-441.81 1176.53,-441.81 1176.53,-481.41"/>
<text xml:space="preserve" text-anchor="middle" x="1129.73" y="-456.01" font-family="Helvetica,sans-Serif" font-size="13.00" fill="white">Orders</text>
</g>
<!-- Orders&#45;&#45;R_Customer_Orders -->
<g id="edge53" class="edge">
<title>Orders&#45;&#45;R_Customer_Orders</title>
<path fill="none" stroke="#4a4a4a" stroke-width="2.5" d="M1121.52,-481.62C1112.49,-503.66 1097.84,-539.39 1087.22,-565.31"/>
<polygon fill="#4a4a4a" stroke="#4a4a4a" stroke-width="2.5" points="1083.53,-574.32 1083.16,-563.36 1083.57,-572.23 1086.63,-564.78 1087.32,-565.07 1088.01,-565.35 1084.96,-572.8 1091.48,-566.77 1083.53,-574.32"/>
</g>
<!-- R_Delivery_Orders -->
<g id="node16" class="node">
<title>R_Delivery_Orders</title>
<polygon fill="#d9bf8a" stroke="#2c4a2e" points="935.01,-485.9 895.41,-460.7 935.01,-435.5 974.61,-460.7 935.01,-485.9"/>
<text xml:space="preserve" text-anchor="middle" x="935.01" y="-456.82" font-family="Helvetica,sans-Serif" font-size="10.00">For</text>
</g>
<!-- Orders&#45;&#45;R_Delivery_Orders -->
<g id="edge59" class="edge">
<title>Orders&#45;&#45;R_Delivery_Orders</title>
<path fill="none" stroke="#4a4a4a" d="M1082.59,-461.39C1053.45,-461.25 1016.04,-461.08 986.18,-460.94"/>
<polygon fill="#4a4a4a" stroke="#4a4a4a" points="976.35,-460.89 986.37,-456.44 980.13,-460.91 986.35,-460.94 986.35,-460.94 986.35,-460.94 980.13,-460.91 986.33,-465.44 976.35,-460.89"/>
</g>
<!-- R_Payment_Orders -->
<g id="node18" class="node">
<title>R_Payment_Orders</title>
<polygon fill="#d9bf8a" stroke="#2c4a2e" points="1311.47,-509.75 1271.87,-484.55 1311.47,-459.35 1351.07,-484.55 1311.47,-509.75"/>
<text xml:space="preserve" text-anchor="middle" x="1311.47" y="-480.67" font-family="Helvetica,sans-Serif" font-size="10.00">PaysFor</text>
</g>
<!-- Orders&#45;&#45;R_Payment_Orders -->
<g id="edge63" class="edge">
<title>Orders&#45;&#45;R_Payment_Orders</title>
<path fill="none" stroke="#4a4a4a" d="M1177,-467.58C1208.66,-471.57 1249.57,-476.74 1277.91,-480.31"/>
</g>
<!-- R_OrderItem_Orders -->
<g id="node21" class="node">
<title>R_OrderItem_Orders</title>
<polygon fill="#d9bf8a" stroke="#2c4a2e" points="1040.89,-353.93 1001.29,-328.73 1040.89,-303.53 1080.49,-328.73 1040.89,-353.93"/>
<polygon fill="none" stroke="#2c4a2e" points="1040.89,-358.67 993.84,-328.73 1040.89,-298.79 1087.94,-328.73 1040.89,-358.67"/>
<text xml:space="preserve" text-anchor="middle" x="1040.89" y="-324.86" font-family="Helvetica,sans-Serif" font-size="10.00">IsPartOf</text>
</g>
<!-- Orders&#45;&#45;R_OrderItem_Orders -->
<g id="edge55" class="edge">
<title>Orders&#45;&#45;R_OrderItem_Orders</title>
<path fill="none" stroke="#4a4a4a" d="M1116.24,-441.43C1099.73,-416.74 1071.92,-375.15 1055.1,-349.98"/>
</g>
<!-- Ord_ID -->
<g id="node45" class="node">
<title>Ord_ID</title>
<ellipse fill="white" stroke="#2c4a2e" cx="1298.91" cy="-399.43" rx="25.97" ry="14.4"/>
<text xml:space="preserve" text-anchor="start" x="1282.79" y="-396.75" font-family="Helvetica,sans-Serif" text-decoration="underline" font-size="9.00">OrderID</text>
</g>
<!-- Orders&#45;&#45;Ord_ID -->
<g id="edge24" class="edge">
<title>Orders&#45;&#45;Ord_ID</title>
<path fill="none" stroke="#4a4a4a" d="M1176.85,-444.29C1209.51,-432.29 1251.5,-416.85 1276.75,-407.57"/>
</g>
<!-- Ord_Date -->
<g id="node46" class="node">
<title>Ord_Date</title>
<ellipse fill="white" stroke="#2c4a2e" cx="1164.01" cy="-403.39" rx="32.2" ry="14.4"/>
<text xml:space="preserve" text-anchor="middle" x="1164.01" y="-399.71" font-family="Helvetica,sans-Serif" font-size="9.00">OrderDate</text>
</g>
<!-- Orders&#45;&#45;Ord_Date -->
<g id="edge25" class="edge">
<title>Orders&#45;&#45;Ord_Date</title>
<path fill="none" stroke="#4a4a4a" d="M1141.52,-441.57C1146.17,-433.68 1151.4,-424.8 1155.65,-417.58"/>
</g>
<!-- Ord_Type -->
<g id="node47" class="node">
<title>Ord_Type</title>
<ellipse fill="white" stroke="#2c4a2e" cx="1033.78" cy="-533.56" rx="32.65" ry="14.4"/>
<text xml:space="preserve" text-anchor="middle" x="1033.78" y="-529.88" font-family="Helvetica,sans-Serif" font-size="9.00">OrderType</text>
</g>
<!-- Orders&#45;&#45;Ord_Type -->
<g id="edge26" class="edge">
<title>Orders&#45;&#45;Ord_Type</title>
<path fill="none" stroke="#4a4a4a" d="M1102.75,-481.84C1086.01,-494.39 1065.02,-510.13 1050.62,-520.93"/>
</g>
<!-- Ord_Total -->
<g id="node48" class="node">
<title>Ord_Total</title>
<ellipse fill="white" stroke="#2c4a2e" cx="1239.59" cy="-566.23" rx="37.1" ry="14.4"/>
<text xml:space="preserve" text-anchor="middle" x="1239.59" y="-562.56" font-family="Helvetica,sans-Serif" font-size="9.00">TotalAmount</text>
</g>
<!-- Orders&#45;&#45;Ord_Total -->
<g id="edge27" class="edge">
<title>Orders&#45;&#45;Ord_Total</title>
<path fill="none" stroke="#4a4a4a" d="M1150.91,-481.78C1172.86,-502.68 1206.54,-534.76 1225.45,-552.77"/>
</g>
<!-- Ord_Disc -->
<g id="node49" class="node">
<title>Ord_Disc</title>
<ellipse fill="white" stroke="#2c4a2e" cx="1025.45" cy="-397.08" rx="28.2" ry="14.4"/>
<text xml:space="preserve" text-anchor="middle" x="1025.45" y="-393.41" font-family="Helvetica,sans-Serif" font-size="9.00">Discount</text>
</g>
<!-- Orders&#45;&#45;Ord_Disc -->
<g id="edge28" class="edge">
<title>Orders&#45;&#45;Ord_Disc</title>
<path fill="none" stroke="#4a4a4a" d="M1097.02,-441.37C1079.46,-430.5 1058.47,-417.51 1043.77,-408.42"/>
</g>
<!-- Delivery -->
<g id="node7" class="node">
<title>Delivery</title>
<polygon fill="#2c4a2e" stroke="#2c4a2e" points="788.09,-426.02 694.49,-426.02 694.49,-386.42 788.09,-386.42 788.09,-426.02"/>
<text xml:space="preserve" text-anchor="middle" x="741.29" y="-400.62" font-family="Helvetica,sans-Serif" font-size="13.00" fill="white">Delivery</text>
</g>
<!-- Delivery&#45;&#45;R_Delivery_Orders -->
<g id="edge58" class="edge">
<title>Delivery&#45;&#45;R_Delivery_Orders</title>
<path fill="none" stroke="#4a4a4a" stroke-width="2.5" d="M788.18,-419.41C820.71,-428.56 863.6,-440.61 894.61,-449.34"/>
<polygon fill="#4a4a4a" stroke="#4a4a4a" stroke-width="2.5" points="904.18,-452.03 893.34,-453.65 902.1,-452.22 894.35,-450.04 894.55,-449.32 894.76,-448.6 902.5,-450.78 895.77,-444.99 904.18,-452.03"/>
</g>
<!-- Delivery&#45;&#45;R_Delivery_DeliveryBoy -->
<g id="edge60" class="edge">
<title>Delivery&#45;&#45;R_Delivery_DeliveryBoy</title>
<path fill="none" stroke="#4a4a4a" stroke-width="2.5" d="M694.04,-407.85C654.17,-409.23 596.84,-411.21 553.63,-412.7"/>
<polygon fill="#4a4a4a" stroke="#4a4a4a" stroke-width="2.5" points="543.76,-413.04 553.6,-408.2 545.68,-412.22 553.73,-411.94 553.75,-412.69 553.78,-413.44 545.74,-413.72 553.91,-417.19 543.76,-413.04"/>
</g>
<!-- Del_ID -->
<g id="node53" class="node">
<title>Del_ID</title>
<ellipse fill="white" stroke="#2c4a2e" cx="564.78" cy="-327.78" rx="32.2" ry="14.4"/>
<text xml:space="preserve" text-anchor="start" x="543.41" y="-325.1" font-family="Helvetica,sans-Serif" text-decoration="underline" font-size="9.00">DeliveryID</text>
</g>
<!-- Delivery&#45;&#45;Del_ID -->
<g id="edge32" class="edge">
<title>Delivery&#45;&#45;Del_ID</title>
<path fill="none" stroke="#4a4a4a" d="M695.83,-386.02C661.31,-370.68 615.25,-350.21 587.94,-338.07"/>
</g>
<!-- Del_Time -->
<g id="node54" class="node">
<title>Del_Time</title>
<ellipse fill="white" stroke="#2c4a2e" cx="677.55" cy="-464.45" rx="38.43" ry="14.4"/>
<text xml:space="preserve" text-anchor="middle" x="677.55" y="-460.78" font-family="Helvetica,sans-Serif" font-size="9.00">DeliveryTime</text>
</g>
<!-- Delivery&#45;&#45;Del_Time -->
<g id="edge33" class="edge">
<title>Delivery&#45;&#45;Del_Time</title>
<path fill="none" stroke="#4a4a4a" d="M719.35,-426.26C710.42,-434.42 700.33,-443.64 692.31,-450.97"/>
</g>
<!-- Del_Status -->
<g id="node55" class="node">
<title>Del_Status</title>
<ellipse fill="white" stroke="#2c4a2e" cx="818.82" cy="-348.02" rx="25.2" ry="14.4"/>
<text xml:space="preserve" text-anchor="middle" x="818.82" y="-344.35" font-family="Helvetica,sans-Serif" font-size="9.00">Status</text>
</g>
<!-- Delivery&#45;&#45;Del_Status -->
<g id="edge34" class="edge">
<title>Delivery&#45;&#45;Del_Status</title>
<path fill="none" stroke="#4a4a4a" d="M767.97,-386.19C779.71,-377.38 793.09,-367.34 803.18,-359.76"/>
</g>
<!-- Payment -->
<g id="node8" class="node">
<title>Payment</title>
<polygon fill="#2c4a2e" stroke="#2c4a2e" points="1539.52,-502.98 1445.92,-502.98 1445.92,-463.38 1539.52,-463.38 1539.52,-502.98"/>
<text xml:space="preserve" text-anchor="middle" x="1492.72" y="-477.58" font-family="Helvetica,sans-Serif" font-size="13.00" fill="white">Payment</text>
</g>
<!-- Payment&#45;&#45;R_Payment_Orders -->
<g id="edge62" class="edge">
<title>Payment&#45;&#45;R_Payment_Orders</title>
<path fill="none" stroke="#4a4a4a" stroke-width="2.5" d="M1445.57,-483.54C1420.65,-483.73 1389.98,-483.96 1364.27,-484.15"/>
<polygon fill="#4a4a4a" stroke="#4a4a4a" stroke-width="2.5" points="1354.37,-484.23 1364.34,-479.65 1356.32,-483.46 1364.37,-483.4 1364.37,-484.15 1364.38,-484.9 1356.33,-484.96 1364.41,-488.65 1354.37,-484.23"/>
</g>
<!-- Pay_ID -->
<g id="node56" class="node">
<title>Pay_ID</title>
<ellipse fill="white" stroke="#2c4a2e" cx="1394.99" cy="-548.21" rx="33.54" ry="14.4"/>
<text xml:space="preserve" text-anchor="start" x="1372.49" y="-545.54" font-family="Helvetica,sans-Serif" text-decoration="underline" font-size="9.00">PaymentID</text>
</g>
<!-- Payment&#45;&#45;Pay_ID -->
<g id="edge35" class="edge">
<title>Payment&#45;&#45;Pay_ID</title>
<path fill="none" stroke="#4a4a4a" d="M1462.33,-503.4C1446.42,-513.99 1427.44,-526.62 1413.69,-535.77"/>
</g>
<!-- Pay_Amount -->
<g id="node57" class="node">
<title>Pay_Amount</title>
<ellipse fill="white" stroke="#2c4a2e" cx="1615.96" cy="-541.41" rx="25.53" ry="14.4"/>
<text xml:space="preserve" text-anchor="middle" x="1615.96" y="-537.73" font-family="Helvetica,sans-Serif" font-size="9.00">Amount</text>
</g>
<!-- Payment&#45;&#45;Pay_Amount -->
<g id="edge36" class="edge">
<title>Payment&#45;&#45;Pay_Amount</title>
<path fill="none" stroke="#4a4a4a" d="M1535.48,-503.38C1556.06,-513.11 1579.74,-524.3 1596.06,-532.01"/>
</g>
<!-- Pay_Method -->
<g id="node58" class="node">
<title>Pay_Method</title>
<ellipse fill="white" stroke="#2c4a2e" cx="1670.11" cy="-424.94" rx="46.45" ry="14.4"/>
<text xml:space="preserve" text-anchor="middle" x="1670.11" y="-421.27" font-family="Helvetica,sans-Serif" font-size="9.00">PaymentMethod</text>
</g>
<!-- Payment&#45;&#45;Pay_Method -->
<g id="edge37" class="edge">
<title>Payment&#45;&#45;Pay_Method</title>
<path fill="none" stroke="#4a4a4a" d="M1539.79,-467.73C1570.69,-457.59 1610.3,-444.58 1637.7,-435.59"/>
</g>
<!-- Pay_Date -->
<g id="node59" class="node">
<title>Pay_Date</title>
<ellipse fill="white" stroke="#2c4a2e" cx="1573.98" cy="-348.91" rx="39.77" ry="14.4"/>
<text xml:space="preserve" text-anchor="middle" x="1573.98" y="-345.23" font-family="Helvetica,sans-Serif" font-size="9.00">PaymentDate</text>
</g>
<!-- Payment&#45;&#45;Pay_Date -->
<g id="edge38" class="edge">
<title>Payment&#45;&#45;Pay_Date</title>
<path fill="none" stroke="#4a4a4a" d="M1504.89,-463.08C1521.45,-435.72 1550.68,-387.41 1565.24,-363.36"/>
</g>
<!-- Reservation -->
<g id="node9" class="node">
<title>Reservation</title>
<polygon fill="#2c4a2e" stroke="#2c4a2e" points="521.08,-795.34 420.28,-795.34 420.28,-755.74 521.08,-755.74 521.08,-795.34"/>
<text xml:space="preserve" text-anchor="middle" x="470.68" y="-769.94" font-family="Helvetica,sans-Serif" font-size="13.00" fill="white">Reservation</text>
</g>
<!-- Reservation&#45;&#45;R_Reservation_Customer -->
<g id="edge64" class="edge">
<title>Reservation&#45;&#45;R_Reservation_Customer</title>
<path fill="none" stroke="#4a4a4a" stroke-width="2.5" d="M521.51,-778.11C588.66,-781.51 706.18,-787.46 772.89,-790.84"/>
<polygon fill="#4a4a4a" stroke="#4a4a4a" stroke-width="2.5" points="782.48,-791.33 772.27,-795.32 780.49,-791.98 772.46,-791.57 772.5,-790.82 772.53,-790.07 780.57,-790.48 772.72,-786.33 782.48,-791.33"/>
</g>
<!-- Reservation&#45;&#45;R_Reservation_Table -->
<g id="edge66" class="edge">
<title>Reservation&#45;&#45;R_Reservation_Table</title>
<path fill="none" stroke="#4a4a4a" stroke-width="2.5" d="M427.4,-795.69C405.4,-805.94 378.99,-818.25 358.16,-827.95"/>
<polygon fill="#4a4a4a" stroke="#4a4a4a" stroke-width="2.5" points="349.38,-832.04 356.55,-823.73 350.84,-830.53 358.13,-827.13 358.45,-827.81 358.77,-828.49 351.47,-831.89 360.35,-831.89 349.38,-832.04"/>
</g>
<!-- Res_ID -->
<g id="node60" class="node">
<title>Res_ID</title>
<ellipse fill="white" stroke="#2c4a2e" cx="663.19" cy="-719.56" rx="41.55" ry="14.4"/>
<text xml:space="preserve" text-anchor="start" x="633.94" y="-716.89" font-family="Helvetica,sans-Serif" text-decoration="underline" font-size="9.00">ReservationID</text>
</g>
<!-- Reservation&#45;&#45;Res_ID -->
<g id="edge39" class="edge">
<title>Reservation&#45;&#45;Res_ID</title>
<path fill="none" stroke="#4a4a4a" d="M521.51,-760.76C556.15,-750.68 600.99,-737.65 630.85,-728.97"/>
</g>
<!-- Res_Date -->
<g id="node61" class="node">
<title>Res_Date</title>
<ellipse fill="white" stroke="#2c4a2e" cx="477.08" cy="-706.84" rx="47.78" ry="14.4"/>
<text xml:space="preserve" text-anchor="middle" x="477.08" y="-703.16" font-family="Helvetica,sans-Serif" font-size="9.00">ReservationDate</text>
</g>
<!-- Reservation&#45;&#45;Res_Date -->
<g id="edge40" class="edge">
<title>Reservation&#45;&#45;Res_Date</title>
<path fill="none" stroke="#4a4a4a" d="M472.56,-755.3C473.56,-744.53 474.78,-731.53 475.69,-721.7"/>
</g>
<!-- Res_Time -->
<g id="node62" class="node">
<title>Res_Time</title>
<ellipse fill="white" stroke="#2c4a2e" cx="443.77" cy="-908.25" rx="47.78" ry="14.4"/>
<text xml:space="preserve" text-anchor="middle" x="443.77" y="-904.57" font-family="Helvetica,sans-Serif" font-size="9.00">ReservationTime</text>
</g>
<!-- Reservation&#45;&#45;Res_Time -->
<g id="edge41" class="edge">
<title>Reservation&#45;&#45;Res_Time</title>
<path fill="none" stroke="#4a4a4a" d="M466.59,-795.69C461.12,-822.67 451.55,-869.86 446.73,-893.66"/>
</g>
<!-- Res_Guests -->
<g id="node63" class="node">
<title>Res_Guests</title>
<ellipse fill="white" stroke="#2c4a2e" cx="657.26" cy="-893.17" rx="35.32" ry="14.4"/>
<text xml:space="preserve" text-anchor="middle" x="657.26" y="-889.5" font-family="Helvetica,sans-Serif" font-size="9.00">NumGuests</text>
</g>
<!-- Reservation&#45;&#45;Res_Guests -->
<g id="edge42" class="edge">
<title>Reservation&#45;&#45;Res_Guests</title>
<path fill="none" stroke="#4a4a4a" d="M502.75,-795.76C541.51,-820.2 605.52,-860.55 637.62,-880.79"/>
</g>
<!-- Res_Status -->
<g id="node64" class="node">
<title>Res_Status</title>
<ellipse fill="white" stroke="#2c4a2e" cx="317.74" cy="-717.29" rx="25.2" ry="14.4"/>
<text xml:space="preserve" text-anchor="middle" x="317.74" y="-713.61" font-family="Helvetica,sans-Serif" font-size="9.00">Status</text>
</g>
<!-- Reservation&#45;&#45;Res_Status -->
<g id="edge43" class="edge">
<title>Reservation&#45;&#45;Res_Status</title>
<path fill="none" stroke="#4a4a4a" d="M420.17,-756.3C392.68,-745.83 360.1,-733.42 339.19,-725.46"/>
</g>
<!-- UserAccount -->
<g id="node10" class="node">
<title>UserAccount</title>
<polygon fill="#2c4a2e" stroke="#2c4a2e" points="1047.25,-968.68 941.2,-968.68 941.2,-929.08 1047.25,-929.08 1047.25,-968.68"/>
<text xml:space="preserve" text-anchor="middle" x="994.23" y="-943.28" font-family="Helvetica,sans-Serif" font-size="13.00" fill="white">UserAccount</text>
</g>
<!-- UserAccount&#45;&#45;Customer -->
<!-- UA_ID -->
<g id="node65" class="node">
<title>UA_ID</title>
<ellipse fill="white" stroke="#2c4a2e" cx="1019.28" cy="-1033.41" rx="25.2" ry="14.4"/>
<text xml:space="preserve" text-anchor="start" x="1005.03" y="-1030.74" font-family="Helvetica,sans-Serif" text-decoration="underline" font-size="9.00">UserID</text>
</g>
<!-- UserAccount&#45;&#45;UA_ID -->
<g id="edge44" class="edge">
<title>UserAccount&#45;&#45;UA_ID</title>
<path fill="none" stroke="#4a4a4a" d="M1000.17,-968.92C1004.71,-984.25 1010.87,-1005.03 1014.95,-1018.81"/>
</g>
<!-- UA_Username -->
<g id="node66" class="node">
<title>UA_Username</title>
<ellipse fill="white" stroke="#2c4a2e" cx="807.59" cy="-928.3" rx="32.2" ry="14.4"/>
<text xml:space="preserve" text-anchor="middle" x="807.59" y="-924.62" font-family="Helvetica,sans-Serif" font-size="9.00">Username</text>
</g>
<!-- UserAccount&#45;&#45;UA_Username -->
<g id="edge45" class="edge">
<title>UserAccount&#45;&#45;UA_Username</title>
<path fill="none" stroke="#4a4a4a" d="M940.75,-942.98C907.89,-939.36 866.93,-934.84 839.17,-931.78"/>
</g>
<!-- UA_Password -->
<g id="node67" class="node">
<title>UA_Password</title>
<ellipse fill="white" stroke="#2c4a2e" cx="884.83" cy="-1007.08" rx="30.87" ry="14.4"/>
<text xml:space="preserve" text-anchor="middle" x="884.83" y="-1003.41" font-family="Helvetica,sans-Serif" font-size="9.00">Password</text>
</g>
<!-- UserAccount&#45;&#45;UA_Password -->
<g id="edge46" class="edge">
<title>UserAccount&#45;&#45;UA_Password</title>
<path fill="none" stroke="#4a4a4a" d="M956.27,-969.08C939.24,-978.14 919.81,-988.47 905.52,-996.08"/>
</g>
<!-- UA_Role -->
<g id="node68" class="node">
<title>UA_Role</title>
<ellipse fill="white" stroke="#2c4a2e" cx="1164.77" cy="-928.17" rx="25.2" ry="14.4"/>
<text xml:space="preserve" text-anchor="middle" x="1164.77" y="-924.49" font-family="Helvetica,sans-Serif" font-size="9.00">Role</text>
</g>
<!-- UserAccount&#45;&#45;UA_Role -->
<g id="edge47" class="edge">
<title>UserAccount&#45;&#45;UA_Role</title>
<path fill="none" stroke="#4a4a4a" d="M1047.72,-942.39C1078.59,-938.64 1115.94,-934.1 1140.01,-931.17"/>
</g>
<!-- OrderItem&#45;&#45;R_OrderItem_MenuItem -->
<g id="edge56" class="edge">
<title>OrderItem&#45;&#45;R_OrderItem_MenuItem</title>
<path fill="none" stroke="#4a4a4a" stroke-width="2.5" d="M1018.24,-200.61C999.42,-210.4 978.01,-221.54 960.38,-230.71"/>
<polygon fill="#4a4a4a" stroke="#4a4a4a" stroke-width="2.5" points="951.55,-235.3 958.35,-226.69 952.94,-233.74 960.08,-230.02 960.43,-230.69 960.77,-231.35 953.63,-235.07 962.5,-234.68 951.55,-235.3"/>
</g>
<!-- OrderItem&#45;&#45;R_OrderItem_Orders -->
<g id="edge54" class="edge">
<title>OrderItem&#45;&#45;R_OrderItem_Orders</title>
<path fill="none" stroke="#4a4a4a" stroke-width="2.5" d="M1060.84,-200.61C1057.17,-224.21 1051.51,-260.57 1047.15,-288.54"/>
<polygon fill="#4a4a4a" stroke="#4a4a4a" stroke-width="2.5" points="1045.66,-298.1 1042.75,-287.53 1045.22,-296.06 1046.46,-288.11 1047.2,-288.22 1047.94,-288.34 1046.7,-296.29 1051.65,-288.91 1045.66,-298.1"/>
</g>
<!-- OI_ItemID -->
<g id="node50" class="node">
<title>OI_ItemID</title>
<ellipse fill="white" stroke="#2c4a2e" cx="1253.3" cy="-158.7" rx="25.2" ry="14.4"/>
<text xml:space="preserve" text-anchor="start" x="1240.17" y="-156.02" font-family="Helvetica,sans-Serif" font-style="italic" text-decoration="underline" font-size="9.00">ItemID</text>
</g>
<!-- OrderItem&#45;&#45;OI_ItemID -->
<g id="edge29" class="edge">
<title>OrderItem&#45;&#45;OI_ItemID</title>
<path fill="none" stroke="#4a4a4a" d="M1115.66,-171.68C1152.12,-168.24 1199.58,-163.76 1228.18,-161.07"/>
</g>
<!-- OI_Qty -->
<g id="node51" class="node">
<title>OI_Qty</title>
<ellipse fill="white" stroke="#2c4a2e" cx="1151.15" cy="-249.4" rx="26.86" ry="14.4"/>
<text xml:space="preserve" text-anchor="middle" x="1151.15" y="-245.72" font-family="Helvetica,sans-Serif" font-size="9.00">Quantity</text>
</g>
<!-- OrderItem&#45;&#45;OI_Qty -->
<g id="edge30" class="edge">
<title>OrderItem&#45;&#45;OI_Qty</title>
<path fill="none" stroke="#4a4a4a" d="M1093.42,-200.77C1107.97,-213.03 1124.99,-227.37 1136.77,-237.28"/>
</g>
<!-- OI_UnitPrice -->
<g id="node52" class="node">
<title>OI_UnitPrice</title>
<ellipse fill="white" stroke="#2c4a2e" cx="1160.19" cy="-48.36" rx="29.09" ry="14.4"/>
<text xml:space="preserve" text-anchor="middle" x="1160.19" y="-44.69" font-family="Helvetica,sans-Serif" font-size="9.00">UnitPrice</text>
</g>
<!-- OrderItem&#45;&#45;OI_UnitPrice -->
<g id="edge31" class="edge">
<title>OrderItem&#45;&#45;OI_UnitPrice</title>
<path fill="none" stroke="#4a4a4a" d="M1082.58,-152.39C1102.48,-125.71 1133.87,-83.64 1149.95,-62.09"/>
</g>
</g>
</svg>
